<?xml version="1.0" encoding="utf-8"?>
<!-- Generator: Adobe Illustrator 17.1.0, SVG Export Plug-In . SVG Version: 6.00 Build 0)  -->
<!DOCTYPE svg PUBLIC "-//W3C//DTD SVG 1.1//EN" "http://www.w3.org/Graphics/SVG/1.1/DTD/svg11.dtd">
<svg version="1.1" id="Layer_2" xmlns="http://www.w3.org/2000/svg" xmlns:xlink="http://www.w3.org/1999/xlink" x="0px" y="0px"
	 viewBox="0 0 292.133 161.12" enable-background="new 0 0 292.133 161.12" xml:space="preserve">
<polygon fill="#E0C96A" points="0,161.12 292.133,161.12 192.16,56.812 40.79,47.562 "/>
<path fill="#188190" d="M0,0h292.133c0,0,1.854,112.326-72.864,114.104C144.552,115.882,0,0,0,0z"/>
<path fill="#8E5642" d="M292.133,0v161.12C176.463,161.765,39.692,60.947,134.449,83.874c0,0,10.44,11.971,32.398,18.166
	C209.328,114.027,274.494,107.088,292.133,0z"/>
<path fill="#5F7E53" d="M0,0v161.12c0,0,48.321-121.455,133.987-72.775S161.018,36.949,0,0z"/>
<path fill="#E3DE42" stroke="#000000" stroke-miterlimit="10" d="M3.789,77.434c0,0,15.624-9.672,33.479,2.48
	s5.456,16.616,37.447,15.872c12.575-0.292,24.308-0.278,33.962-0.635c2.073-0.077,4.051-0.171,5.92-0.288
	c11.571-0.728,19.001-2.37,19.389-6.516c0.744-7.936-1.736-26.536,6.944-27.032c8.68-0.496,45.135-5.208,46.127,4.216
	s0.272,25.088,35.735,20.872c0,0,11.632,7.895,27.008,6.159c2.756-0.311,5.599-0.423,8.423-0.382
	c12.932,0.19,25.456,3.599,27.288,5.838c2.232,2.728,12.152,10.416,0,20.832c-12.152,10.416-10.416,3.968-12.896,15.624
	c-2.48,11.656-10.912,20.336-24.304,24.304s-130.694,0-130.694,0s-12.896,1.984-21.576-15.128c0,0,1.488-5.704-37.199-4.712
	c0,0-2.882-0.615-5.475-2.415c-1.49-1.035-4.522-0.873-5.317-1.037c-0.768-0.159-3.84-4.236,1.368-5.476
	c0,0,0.248-9.424-5.952-9.176c0,0-6.2-1.984-17.112-0.992s-19.592,1.984-21.08-3.72h16.864c0,0,5.704-1.835,6.2-6.001V83.881
	c0,0-0.992-6.696-5.704-6.448H3.789z"/>
<path fill="#EDAA3E" stroke="#000000" stroke-miterlimit="10" d="M264.755,92.627c-0.727,10.171-9.987,8.886-9.987,8.886
	s-40.447,1.605-55.558,0.482s-17.953,6.42-17.953,7.383s-1.445,5.297-8.667,8.991s-51.327,1.566-51.327,1.566
	c-26.91-0.479-22.881,27.959-22.881,27.959s4.23,9.838,19.145,10.963c0,0,117.302,3.968,130.694,0
	c13.392-3.968,21.824-12.648,24.304-24.304c2.48-11.656,0.744-5.208,12.896-15.624c12.152-10.416,3.308-18.006,0-20.832
	C280.476,94.414,264.755,92.627,264.755,92.627z"/>
<path fill="none" stroke="#000000" stroke-miterlimit="10" d="M150.023,122.524"/>
<ellipse fill="#E33E3A" stroke="#000000" stroke-miterlimit="10" cx="123.091" cy="127.759" rx="7.175" ry="4.9"/>
<ellipse fill="#FFFFFF" stroke="#000000" stroke-miterlimit="10" cx="123.091" cy="127.759" rx="5.084" ry="3.472"/>
<ellipse fill="#E33E3A" stroke="#000000" stroke-miterlimit="10" cx="139.505" cy="127.759" rx="7.175" ry="4.9"/>
<ellipse fill="#FFFFFF" stroke="#000000" stroke-miterlimit="10" cx="139.505" cy="127.759" rx="5.084" ry="3.472"/>
<ellipse fill="#E33E3A" stroke="#000000" stroke-miterlimit="10" cx="155.496" cy="127.759" rx="7.175" ry="4.9"/>
<ellipse fill="#FFFFFF" stroke="#000000" stroke-miterlimit="10" cx="155.496" cy="127.759" rx="5.084" ry="3.472"/>
<ellipse fill="#E33E3A" stroke="#000000" stroke-miterlimit="10" cx="171.344" cy="127.759" rx="7.175" ry="4.9"/>
<ellipse fill="#FFFFFF" stroke="#000000" stroke-miterlimit="10" cx="171.344" cy="127.759" rx="5.084" ry="3.472"/>
<ellipse fill="#E33E3A" stroke="#000000" stroke-miterlimit="10" cx="192.16" cy="111.583" rx="7.142" ry="6.705"/>
<ellipse fill="#FFFFFF" stroke="#000000" stroke-miterlimit="10" cx="192.16" cy="111.583" rx="4.785" ry="4.492"/>
<ellipse fill="#E33E3A" stroke="#000000" stroke-miterlimit="10" cx="207.851" cy="111.583" rx="7.142" ry="6.705"/>
<ellipse fill="#FFFFFF" stroke="#000000" stroke-miterlimit="10" cx="207.851" cy="111.583" rx="4.785" ry="4.492"/>
<ellipse fill="#E33E3A" stroke="#000000" stroke-miterlimit="10" cx="223.702" cy="111.583" rx="7.142" ry="6.705"/>
<ellipse fill="#FFFFFF" stroke="#000000" stroke-miterlimit="10" cx="223.702" cy="111.583" rx="4.785" ry="4.492"/>
<ellipse fill="#E33E3A" stroke="#000000" stroke-miterlimit="10" cx="239.591" cy="111.583" rx="7.142" ry="6.705"/>
<ellipse fill="#FFFFFF" stroke="#000000" stroke-miterlimit="10" cx="239.591" cy="111.583" rx="4.785" ry="4.492"/>
<path fill="#E8D8AE" stroke="#050505" stroke-miterlimit="10" d="M258.015,92.18c0,0-5.674,0.016-8.423,0.382
	c-9.017,1.199-10.001,0.066-19.267-4.035c-2.59-1.146-2.835-2.485-7.386-2.63c-34.46,1.878-35.098-10.943-36.089-20.367
	c-0.992-9.424-37.447-4.712-46.127-4.216s-6.2,19.096-6.944,27.032c-0.389,4.146-7.609,5.788-19.18,6.516
	c0.269,25.183,19.824,21.214,19.824,21.214h31.839c0,0,8.036-1.301,10.168-9.744c2.132-8.443,12.049-9.113,13.658-9.113
	c1.608,0,63.926,0,63.926,0S259.606,96.791,258.015,92.18z"/>
<path fill="#DF9A34" stroke="#020202" stroke-miterlimit="10" d="M65.184,95.827v11.264c0,0,1.741,3.065,3.483,3.028
	c1.742-0.037,22.515,0,22.515,0s2.68-1.195,2.68-3.028c0-1.833,0-11.615,0-11.615L65.184,95.827z"/>
<path fill="#D52E36" stroke="#000000" stroke-miterlimit="10" d="M109.271,95.127c0,0-3.079,14.665,7.776,21.176
	c0,0-18.005-0.509-20.686,14.928v13.027l2.113,3.555c0,0-4.028-28.438,22.881-27.959c0,0,44.104,2.128,51.327-1.566
	s8.667-8.028,8.667-8.991s2.842-8.507,17.953-7.383s55.558-0.482,55.558-0.482s8.417,0.847,9.987-8.886h-6.548
	c0,0,1.283,3.987-4.288,4.671c-5.571,0.684-54.386-0.042-63.926,0c-9.539,0.042-13.325,7.165-14.241,10.906
	c-0.916,3.742-3.486,6.222-9.584,7.951c-6.098,1.729-31.552,0.034-38.086-0.081s-14.842-7.801-13.577-21.132L109.271,95.127z"/>
<path fill="#F0EBCA" stroke="#000000" stroke-miterlimit="10" d="M186.848,65.53c0,0-8.27-3.582-8.329,7.012
	c-0.059,10.593,0,18.619,0,18.619s-0.426,2.889,6.498,2.568c6.925-0.321,31.541,0.025,31.541,0.025s1.564-0.025,2.358-2.754
	c0.793-2.729,0-4.718,0-4.718s-11.707,0.568-20.036-2.748C190.212,80.081,188.175,76.334,186.848,65.53z"/>
<path fill="#E485D0" stroke="#000000" stroke-miterlimit="10" d="M139.937,94.221h30.274c0,0-0.727-2.422,3.471-2.503
	c0,0,2.341-2.26-0.404-2.664s-6.216-0.969-2.018-3.31c4.198-2.341,2.906-3.552-0.484-3.633c-3.391-0.081-4.763,1.211-3.068-2.099
	c1.695-3.31,1.534-4.44-1.453-2.987c-2.987,1.453-4.763,2.906-3.552-1.13s-1.615-3.31-2.826-0.727s-3.229,2.422-3.714-0.727
	c-0.484-3.148-2.583-3.633-2.664,0.242c-0.081,3.875-1.534,3.875-2.906,1.534c-1.372-2.341-5.308-2.583-2.977,1.211
	s0.555,3.391-2.028,2.341c-2.583-1.049-5.005-0.51-1.857,2.813c3.148,3.323,0.807,2.757-0.888,2.435
	c-1.695-0.323-5.247,0.478-1.615,2.984c3.633,2.506,3.714,2.022,1.372,3.475C140.26,92.929,138.807,92.768,139.937,94.221z"/>
<path fill="#1647A0" stroke="#050505" stroke-miterlimit="10" d="M149.319,93.753c0,0,0.977-11.189,8.035-11.17
	c7.058,0.019,7.591,9.869,7.391,11.17H149.319z"/>
<path fill="#D52E36" stroke="#000000" stroke-miterlimit="10" d="M157.08,89.194c0,0,3.271,0.799,3.471,4.128l-6.992,0.43
	C153.559,93.753,153.21,88.995,157.08,89.194z"/>
<path fill="#D52E36" stroke="#000000" stroke-miterlimit="10" d="M146.434,93.753c0,0-1.532-15.745,11.386-15.945
	c12.918-0.2,10.654,16.413,10.654,16.413h4.128c0,0,2.053-1.407-1.404-1.985c-3.457-0.578-1.329-2.692,0.537-3.433
	c1.866-0.741,5.184-3.707-0.936-2.79c0,0-3.387-0.188-0.792-3.897s0.014-2.856-2.299-2.104c-2.313,0.752-2.806-0.84-1.453-2.987
	c1.353-2.147-1.11-4.764-3.641-0.825c-2.53,3.939-2.863-1.455-2.863-1.588c0-0.133-1.915-5.384-3.521,0.171
	c-1.606,5.555-2.733,0.055-2.742,0.241s-3.921-5.876-3.124,0.851c0,0,2.462,4.463-3.131,1.933c-5.593-2.53-2.131,1.132-1.132,3.263
	c0.999,2.131-1.731,1.598-4.128,0.799c-2.397-0.799-2.663,1.931,1.998,4.062c4.661,2.131-2.464,2.143-3.263,2.237
	c-0.799,0.094-4.594,3.357,3.13,3.956c0,0,1.798,1.596-0.067,2.097L146.434,93.753z"/>
<path fill="#E29F2B" stroke="#050505" stroke-miterlimit="10" d="M152.466,60.36c0,0,3.116-21.867-4.3-21.202
	c0,0-3.993-0.095-3.708-4.944c0.285-4.849,8.842-7.701,12.834,0.475l1.426,24.623L152.466,60.36z"/>
<path fill="#FFFFFF" stroke="#000000" stroke-miterlimit="10" d="M144.479,35.003c0,2.712,1.405,4.079,3.137,4.079
	s2.641-1.783,2.641-4.495s-0.908-4.495-2.641-4.495S144.479,32.291,144.479,35.003z"/>
<path fill="#FEBE3E" stroke="#050505" stroke-miterlimit="10" d="M164.182,11.021c0,0-3.65-9.308,4.38-10.403
	s13.962,5.658,7.209,11.498c0,0-4.015,0.553-4.015,4.018s-0.274,6.711-0.274,6.711l-5.135,6.245l-2.367-15.497L164.182,11.021z"/>
<ellipse fill="#D52E36" stroke="#000000" stroke-miterlimit="10" cx="146.228" cy="34.547" rx="1.389" ry="3.09"/>
<path fill="#EBD238" stroke="#000000" stroke-miterlimit="10" d="M166.281,22.337c0,0,0.73-6.479-2.646-9.034
	c-3.376-2.555-6.57-4.107-12.502-3.376c-5.932,0.73-7.02,7.757-6.293,9.126c0.727,1.369,1.731,2.373,3.83,3.285
	c2.099,0.913,7.483,3.833,7.757,9.764c0.274,5.932,2.294,27.598,2.294,27.598h6.649L166.281,22.337z"/>
<path fill="#FFFFFF" stroke="#000000" stroke-miterlimit="10" d="M160.313,15.31c1.255,4.783-2.551,7.986-8.196,7.483
	c-4.995-0.445-7.673-1.695-7.673-5.475s3.271-7.573,8.285-7.573S159.353,11.654,160.313,15.31z"/>
<path fill="#D52E36" stroke="#000000" stroke-miterlimit="10" d="M157.885,16.131c-0.204,3.111-3.008,5.234-6.523,5.11
	c-3.6-0.127-6.523-2.288-6.523-5.11s2.921-5.11,6.523-5.11C154.964,11.021,158.07,13.315,157.885,16.131z"/>
<path fill="#FFFFFF" stroke="#000000" stroke-miterlimit="10" d="M178.71,6.595c0,3.364-1.41,5.019-4.142,6.16
	c-2.846,1.188-5.583-2.727-5.583-6.092s1.997-6.73,4.863-5.592C177.318,2.45,178.71,3.231,178.71,6.595z"/>
<ellipse fill="#D52E36" stroke="#000000" stroke-miterlimit="10" cx="175.279" cy="6.595" rx="3.432" ry="4.426"/>
<path fill="#F2D342" stroke="#000000" stroke-miterlimit="10" d="M176.684,60.117c0,0-1.643-16.7,2.464-23.635
	c4.107-6.935,5.019-3.011,5.293-7.392s-1.643-6.935-6.388-7.027c-4.745-0.091-10.884-2.189-11.921,6.389
	c-1.037,8.577-0.763,31.248-0.763,31.248S175.359,59.875,176.684,60.117z"/>
<ellipse fill="#FFFFFF" stroke="#000000" stroke-miterlimit="10" cx="175.963" cy="29.09" rx="8.503" ry="6.408"/>
<ellipse fill="#D52E36" stroke="#000000" stroke-miterlimit="10" cx="175.963" cy="28.306" rx="6.069" ry="4.335"/>
<path fill="#B00806" stroke="#000000" stroke-miterlimit="10" d="M140.028,61.141c0,0,3.025-6.494,6.917-7.947
	c3.891-1.453,32.411-0.227,32.411-0.227s2.634,0.727,0.227,1.453s-1.362-0.522-1.589,5.28h-1.816l-0.045-5.007l-3.224-0.182V59.7
	l-2.589-0.375v-4.814l-5.086-0.091l-0.59,4.677l-2.134,0.602l-0.136-5.007l-5.631-0.136l-0.129,5.518l-2.278-0.068l0.091-5.631
	h-4.314v5.722l-2.044,0.363l0.182-6.04c0,0-3.905,2.134-6.494,6.721H140.028z"/>
<ellipse transform="matrix(0.9917 0.1289 -0.1289 0.9917 15.9966 -34.1339)" fill="#DF5027" stroke="#000000" stroke-miterlimit="10" cx="271.645" cy="106.49" rx="7.653" ry="5.038"/>
<path fill="#E3DE42" stroke="#000000" stroke-miterlimit="10" d="M215.735,160.54v-31.991c0,0-0.224-5.724,6.285-6.958
	c6.509-1.235,24.714,0,24.714,0s5.813-0.112,5.813,7.519c0,7.632,0,27.72,0,27.72s-4.425,2.18-6.862,2.464
	C243.247,159.579,215.735,160.54,215.735,160.54z"/>
<path fill="#E3DE42" stroke="#000000" stroke-miterlimit="10" d="M147.617,159.635c0,0-1.351-10.514,6.617-11.822l35.464,0.712
	c0,0,5.38-0.229,5.047,11.95L147.617,159.635z"/>
<rect x="25.435" y="85.737" fill="#E8D8AE" stroke="#050505" stroke-miterlimit="10" width="2.906" height="3.867"/>
<rect x="25.435" y="103.415" fill="#E8D8AE" stroke="#050505" stroke-miterlimit="10" width="2.906" height="3.867"/>
<path fill="#E8D8AE" stroke="#050505" stroke-miterlimit="10" d="M2.094,78.97h20.441c0,0,2.9,0.829,2.9,4.558
	c0,3.729,0,26.593,0,26.593s-0.552,3.101-3.867,3.654s-17.779,0.246-17.779,0.246s8.149-4.794,0.653-11.221
	c0,0,7.872-5.322-0.653-11.399C3.789,91.4,12.728,84.356,2.094,78.97z"/>
<path fill="#D52E36" stroke="#000000" stroke-miterlimit="10" d="M41.592,132.945c0,0-2.34-11.01,0.975-10.912
	s2.461,8.273,1.084,10.912c0,0,3.131,8.488,0,11.121c-3.131,2.632-3.229-6.727-2.059-10.139
	C42.762,130.514,41.592,132.945,41.592,132.945z"/>
<path fill="#D52E36" stroke="#000000" stroke-miterlimit="10" d="M47.331,131.017c0,0-8.219-1.435-7.286,1.957
	c0.933,3.392,7.286,1.852,7.286,1.852S45.249,132.622,47.331,131.017z"/>
</svg>
